<?xml version="1.0" standalone="no"?>
<!DOCTYPE svg PUBLIC "-//W3C//DTD SVG 20010904//EN"
 "http://www.w3.org/TR/2001/REC-SVG-20010904/DTD/svg10.dtd">
<svg version="1.0" xmlns="http://www.w3.org/2000/svg"
 width="800.000000pt" height="314.000000pt" viewBox="0 0 800.000000 314.000000"
 preserveAspectRatio="xMidYMid meet">
<metadata>
Created by potrace 1.15, written by Peter Selinger 2001-2017
</metadata>
<g transform="translate(0.000000,314.000000) scale(0.100000,-0.100000)"
fill="#000000" stroke="none">
<path d="M1693 2100 c-67 -40 -86 -151 -37 -210 38 -45 79 -63 130 -57 142 16
180 207 54 272 -41 21 -109 19 -147 -5z"/>
<path d="M5893 2100 c-46 -27 -65 -63 -66 -118 -2 -115 106 -185 209 -136 67
32 96 133 59 205 -34 65 -135 90 -202 49z"/>
<path d="M6495 2095 c-27 -8 -53 -14 -56 -15 -3 0 -27 -18 -52 -40 -50 -44
-71 -93 -82 -192 l-6 -58 -35 0 -34 0 0 -100 0 -100 35 0 35 0 0 -295 0 -295
125 0 125 0 0 295 0 295 50 0 50 0 0 105 0 105 -45 0 c-44 0 -45 0 -45 34 0
37 12 51 53 61 l27 7 0 104 0 104 -47 -1 c-27 0 -70 -7 -98 -14z"/>
<path d="M2960 1890 l0 -100 -35 0 -35 0 0 -100 0 -100 35 0 35 0 0 -193 c0
-222 10 -274 62 -324 53 -52 99 -66 231 -71 l117 -4 0 105 0 105 -64 4 c-98 6
-96 2 -96 204 l0 174 80 0 80 0 0 100 0 100 -80 0 -80 0 0 100 0 100 -125 0
-125 0 0 -100z"/>
<path d="M2419 1791 c-39 -12 -71 -31 -101 -59 l-28 -26 0 42 0 42 -125 0
-125 0 0 -395 0 -395 120 0 120 0 0 232 c0 210 2 235 20 273 25 51 65 75 125
75 57 0 100 -21 125 -63 18 -29 20 -52 20 -274 l0 -243 126 0 125 0 -3 293 -3
292 -28 57 c-33 67 -91 121 -155 142 -48 17 -168 20 -213 7z"/>
<path d="M3705 1787 c-109 -37 -186 -104 -233 -205 -25 -52 -27 -68 -27 -182
0 -119 1 -128 31 -190 59 -125 172 -203 309 -216 121 -11 249 26 326 94 33 29
99 136 99 161 0 7 -42 11 -132 11 -120 0 -134 -2 -154 -21 -26 -25 -87 -40
-127 -32 -34 7 -97 63 -97 87 0 14 27 16 265 16 l265 0 0 93 c0 174 -67 290
-207 359 -58 28 -75 32 -171 35 -70 2 -121 -2 -147 -10z m180 -211 c42 -18 85
-62 85 -87 0 -18 -10 -19 -135 -19 -88 0 -135 4 -135 10 0 30 35 73 73 91 51
23 67 23 112 5z"/>
<path d="M4549 1786 c-131 -47 -216 -159 -240 -318 -23 -144 17 -280 108 -373
71 -72 139 -100 238 -99 93 2 137 17 197 72 l41 37 -6 -82 c-7 -90 -22 -130
-63 -162 -59 -47 -171 -34 -223 25 l-30 34 -121 0 -121 0 7 -37 c19 -111 86
-192 190 -234 53 -21 75 -24 204 -24 139 0 148 1 208 29 67 31 119 81 152 147
44 86 50 148 50 587 l0 412 -125 0 -125 0 0 -47 0 -47 -27 27 c-49 46 -109 67
-198 66 -44 0 -96 -6 -116 -13z m236 -216 c39 -15 83 -71 95 -121 38 -159 -98
-287 -230 -217 -61 33 -90 85 -90 161 0 96 37 154 117 182 36 13 62 12 108 -5z"/>
<path d="M5625 1781 c-22 -10 -59 -39 -82 -64 l-43 -47 0 60 0 60 -125 0 -125
0 0 -395 0 -395 124 0 125 0 3 223 c3 240 8 261 60 300 18 13 48 21 97 25 l71
5 0 123 0 124 -32 0 c-18 0 -51 -9 -73 -19z"/>
<path d="M1650 1395 l0 -395 125 0 125 0 0 395 0 395 -125 0 -125 0 0 -395z"/>
<path d="M5850 1395 l0 -395 120 0 120 0 0 395 0 395 -120 0 -120 0 0 -395z"/>
<path d="M6710 1786 c0 -2 68 -175 150 -384 l150 -380 -80 -187 c-44 -103 -80
-191 -80 -196 0 -15 257 -11 263 4 3 6 114 264 246 571 133 308 241 563 241
568 0 4 -58 8 -129 8 l-129 0 -88 -240 c-49 -132 -91 -240 -94 -240 -3 0 -41
107 -86 238 l-81 237 -141 3 c-78 1 -142 1 -142 -2z"/>
<path d="M962 1592 l-104 -67 6 -45 c2 -25 17 -133 33 -240 23 -163 27 -230
28 -410 0 -186 -3 -223 -19 -274 -26 -80 -73 -126 -126 -126 -77 0 -104 26
-150 143 -30 78 -67 107 -132 107 -44 0 -54 -4 -84 -34 -31 -31 -34 -40 -34
-90 0 -92 51 -165 150 -217 40 -21 58 -24 165 -24 110 0 125 2 178 27 81 38
130 79 184 155 90 127 131 286 119 468 -15 216 -83 686 -101 691 -6 1 -56 -27
-113 -64z"/>
</g>
</svg>
